<svg xmlns="http://www.w3.org/2000/svg" version="1.1" xmlns:xlink="http://www.w3.org/1999/xlink" xmlns:svgjs="http://svgjs.com/svgjs" width="1440" height="560" preserveAspectRatio="none" viewBox="0 0 1440 560"><g mask="url(&quot;#SvgjsMask1011&quot;)" fill="none"><rect width="1440" height="560" x="0" y="0" fill="rgba(249, 250, 251, 1)"></rect><path d="M1385.1 257.02a28.8 28.8 0 1 0 56.42 11.57z" stroke="rgba(209, 213, 219, 1)"></path><path d="M530.24 426.29 a32.02 32.02 0 1 0 64.04 0 a32.02 32.02 0 1 0 -64.04 0z" fill="rgba(209, 213, 219, 1)"></path><path d="M479.93 23.74 a31.02 31.02 0 1 0 62.04 0 a31.02 31.02 0 1 0 -62.04 0z" stroke="rgba(209, 213, 219, 1)"></path><path d="M54.21 324.82 a25.29 25.29 0 1 0 50.58 0 a25.29 25.29 0 1 0 -50.58 0z" fill="rgba(209, 213, 219, 1)"></path><path d="M455.67 496.65a9.42 9.42 0 1 0-4.55 18.28z" stroke="rgba(209, 213, 219, 1)"></path><path d="M481.7 441.74a4.7 4.7 0 1 0 8.04-4.88z" stroke="rgba(209, 213, 219, 1)"></path><path d="M518.84 0.49 a21.73 21.73 0 1 0 43.46 0 a21.73 21.73 0 1 0 -43.46 0z" stroke="rgba(209, 213, 219, 1)"></path><path d="M1179.3 532.62L1215.44 532.62L1215.44 551.07L1179.3 551.07z" stroke="rgba(209, 213, 219, 1)"></path><path d="M872.03 362.6L888.08 362.6L888.08 366.77L872.03 366.77z" fill="rgba(209, 213, 219, 1)"></path><path d="M1386.61 20.12L1418.49 20.12L1418.49 59.17L1386.61 59.17z" fill="rgba(209, 213, 219, 1)"></path><path d="M891.09 58.29L909.39 58.29L909.39 76.59L891.09 76.59z" stroke="rgba(209, 213, 219, 1)"></path><path d="M361.52 379.72a6.17 6.17 0 1 0-12.09 2.48z" stroke="rgba(209, 213, 219, 1)"></path><path d="M218.42 481.86L253.93 481.86L253.93 517.37L218.42 517.37z" fill="rgba(209, 213, 219, 1)"></path><path d="M1294.27 112.8L1294.3 112.8L1294.3 112.83L1294.27 112.83z" stroke="rgba(209, 213, 219, 1)"></path><path d="M684.69 5.57a39.7 39.7 0 1 0 3.54 79.32z" stroke="rgba(209, 213, 219, 1)"></path><path d="M136.76 5.52L159.17 5.52L159.17 27.93L136.76 27.93z" stroke="rgba(209, 213, 219, 1)"></path><path d="M765.7 191.62 a23.34 23.34 0 1 0 46.68 0 a23.34 23.34 0 1 0 -46.68 0z" fill="rgba(209, 213, 219, 1)"></path><path d="M238.72 508.14 a44.15 44.15 0 1 0 88.3 0 a44.15 44.15 0 1 0 -88.3 0z" stroke="rgba(209, 213, 219, 1)"></path><path d="M818.36 149.48a38.7 38.7 0 1 0 49.58 59.43z" stroke="rgba(209, 213, 219, 1)"></path><path d="M708.75 477.24L749.19 477.24L749.19 517.68L708.75 517.68z" stroke="rgba(209, 213, 219, 1)"></path><path d="M1387.4 41.03a51.37 51.37 0 1 0 101.58 15.44z" fill="rgba(209, 213, 219, 1)"></path><path d="M799.25 117.87a11.64 11.64 0 1 0-17 15.9z" stroke="rgba(209, 213, 219, 1)"></path><path d="M484.72 71.89a6.46 6.46 0 1 0-0.97 12.89z" fill="rgba(209, 213, 219, 1)"></path><path d="M679 163.51L713.68 163.51L713.68 186.9L679 186.9z" fill="rgba(209, 213, 219, 1)"></path><path d="M1326.18 557.67L1374.6 557.67L1374.6 601.9L1326.18 601.9z" fill="rgba(209, 213, 219, 1)"></path><path d="M125.75 327.45L175.11 327.45L175.11 373.73L125.75 373.73z" stroke="rgba(209, 213, 219, 1)"></path><path d="M1110.93 327.82L1116.21 327.82L1116.21 333.1L1110.93 333.1z" stroke="rgba(209, 213, 219, 1)"></path><path d="M608.46 284.22a22.42 22.42 0 1 0 36.29 26.34z" fill="rgba(209, 213, 219, 1)"></path><path d="M637.84 365.1L662.3 365.1L662.3 389.56L637.84 389.56z" stroke="rgba(209, 213, 219, 1)"></path><path d="M134.94 506.34 a9.64 9.64 0 1 0 19.28 0 a9.64 9.64 0 1 0 -19.28 0z" stroke="rgba(209, 213, 219, 1)"></path><path d="M919.93 281.95 a53.05 53.05 0 1 0 106.1 0 a53.05 53.05 0 1 0 -106.1 0z" fill="rgba(209, 213, 219, 1)"></path><path d="M1321.87 493.04L1372.11 493.04L1372.11 510.82L1321.87 510.82z" fill="rgba(209, 213, 219, 1)"></path><path d="M1379.68 370.51a39.66 39.66 0 1 0-34.51 71.42z" fill="rgba(209, 213, 219, 1)"></path></g><defs><mask id="SvgjsMask1011"><rect width="1440" height="560" fill="#ffffff"></rect></mask></defs></svg>